<svg width="400" height="400" xmlns="http://www.w3.org/2000/svg" xmlns:xlink="http://www.w3.org/1999/xlink" version="1.0">
 <defs id="defs4">
  <filter id="filter3315">
   <feGaussianBlur stdDeviation="3.7" id="feGaussianBlur3317"/>
  </filter>
  <linearGradient id="linearGradient3153">
   <stop offset="0" stop-color="#fff" id="stop3155"/>
   <stop offset="1" stop-opacity="0" stop-color="#fff" id="stop3157"/>
  </linearGradient>
  <radialGradient r="92.5" gradientTransform="matrix(-0.9354531764984131,0.9704346656799316,-2.1100642681121826,-2.1889708042144775,720.0196533203125,163.6870574951172)" cx="289.43" cy="209.67" gradientUnits="userSpaceOnUse" xlink:href="#linearGradient3153" id="radialGradient3328"/>
  <radialGradient r="92.5" gradientTransform="matrix(0.9354531764984131,-0.9704346656799316,2.1100642681121826,2.1889708042144775,-315.939453125,212.4771728515625)" cx="289.43" cy="209.67" gradientUnits="userSpaceOnUse" xlink:href="#linearGradient3153" id="radialGradient3331"/>
  <radialGradient r="53.688" gradientTransform="matrix(0,3.2060632705688477,-1.075740098953247,0,409.48583984375,-450.8205261230469)" cx="199.28" cy="192.84" gradientUnits="userSpaceOnUse" id="radialGradient3349">
   <stop offset="0" stop-color="#f7f7f7" id="stop3265"/>
   <stop offset="1" stop-color="#e1e1e1" id="stop3267"/>
  </radialGradient>
  <radialGradient r="68.844" gradientTransform="matrix(0,3.100381374359131,-0.8862807154655457,0,372.9537048339844,-429.77337646484375)" cx="199.28" cy="192.84" gradientUnits="userSpaceOnUse" id="radialGradient3352">
   <stop offset="0" stop-color="#6c6c6c" id="stop3275"/>
   <stop offset="1" stop-color="#3e3e3e" id="stop3277"/>
  </radialGradient>
 </defs>
 <metadata>image/svg+xmlOpenclipartVinyl records2007-10-30T17:35:05Remember, it was a vinyl records before CD revolution!http://openclipart.org/detail/7645/vinyl-records-by-benboisBenBoisclip artclipartdiskimagemediamusicpngpublic domainrecordssound supportsvgvinyl</metadata>
 <g>
  <title>Layer 1</title>
  <g stroke="null" fill-rule="evenodd" id="layer2">
   <path stroke="null" fill-opacity="0.50857" d="m202.81126,4.04448c-108.68811,0 -196.89875,88.47004 -196.89875,197.47776c0.00426,109.00772 88.21064,197.47776 196.89875,197.47776s196.89875,-88.47004 196.89875,-197.47776s-88.21064,-197.47776 -196.89875,-197.47776zm0,191.93771c3.05459,0 5.52381,2.47648 5.52381,5.54005s-2.46922,5.54005 -5.52381,5.54005c-3.04395,0 -5.51316,-2.47648 -5.51316,-5.54005s2.46922,-5.54005 5.51316,-5.54005z" filter="url(#filter3315)" id="path3309"/>
   <path stroke="null" d="m199.92696,-0.22531c-108.68811,0 -196.89875,88.47004 -196.89875,197.47776s88.21064,197.47776 196.89875,197.47776s196.89875,-88.47004 196.89875,-197.47776s-88.21064,-197.47776 -196.89875,-197.47776zm0,191.93771c3.05459,0 5.52381,2.47648 5.52381,5.54005s-2.46922,5.54005 -5.52381,5.54005s-5.52381,-2.47648 -5.52381,-5.54005s2.46922,-5.54005 5.52381,-5.54005z" id="path3191"/>
   <path stroke="null" fill="#333" d="m199.92696,125.37054c-39.55004,0 -71.67114,32.21556 -71.67114,71.88191s32.1211,71.88191 71.67114,71.88191s71.67114,-32.21556 71.67114,-71.88191s-32.1211,-71.88191 -71.67114,-71.88191zm0,67.14244c2.60758,0 4.72557,2.12422 4.72557,4.73947s-2.11799,4.73947 -4.72557,4.73947s-4.72557,-2.12422 -4.72557,-4.73947s2.11799,-4.73947 4.72557,-4.73947z" id="path3271"/>
   <path stroke="null" d="m199.92696,-0.22531c-108.68811,0 -196.89875,88.47004 -196.89875,197.47776s88.21064,197.47776 196.89875,197.47776s196.89875,-88.47004 196.89875,-197.47776s-88.21064,-197.47776 -196.89875,-197.47776zm0,3.83641c106.5914,0 193.10978,86.73757 193.10978,193.64563s-86.51837,193.67765 -193.10978,193.67765s-193.10978,-86.7728 -193.10978,-193.67765c0.00319,-106.90485 86.51944,-193.64563 193.10978,-193.64563z" id="path3176"/>
   <path stroke="null" fill="url(#radialGradient3331)" d="m299.50451,197.25245c0,55.13366 -44.60555,99.9024 -99.57755,99.9024l0,93.77525c106.5914,0 193.10978,-86.7728 193.10978,-193.67765l-93.53223,0z" id="path3151"/>
   <path stroke="null" fill="url(#radialGradient3328)" d="m100.34941,197.25245c0,-55.13366 44.60555,-99.9024 99.57755,-99.9024l0,-93.77312c-106.5914,0 -193.10978,86.77173 -193.10978,193.67765l93.53223,0l0,-0.00213z" id="path3193"/>
   <path stroke="null" fill="url(#radialGradient3352)" d="m251.73794,145.28911c-28.59821,-28.68231 -75.02374,-28.68231 -103.62196,0s-28.59821,75.24436 0,103.92668s75.02374,28.68231 103.62196,0s28.59821,-75.24436 0,-103.92668zm-2.27764,2.28434c27.33167,27.42272 27.33167,71.93528 0,99.358c-27.34232,27.41205 -71.72436,27.41205 -99.06668,0c-27.33167,-27.42272 -27.33167,-71.93528 0,-99.358c27.34232,-27.41205 71.72436,-27.41205 99.06668,0z" id="path3215"/>
   <path stroke="null" fill="url(#radialGradient3349)" d="m240.32846,156.73215c-22.29745,-22.3737 -58.50554,-22.3737 -80.80299,0c-22.3081,22.36302 -22.3081,58.67758 0,81.0406c22.29745,22.3737 58.50554,22.3737 80.80299,0c22.3081,-22.36302 22.3081,-58.67758 0,-81.0406zm-36.49545,36.60277c2.16056,2.16692 2.16056,5.66815 0,7.83506s-5.65153,2.16692 -7.81209,0s-2.16056,-5.66815 0,-7.83506c2.16056,-2.15624 5.65153,-2.15624 7.81209,0z" id="path3223"/>
   <path stroke="null" fill="#fff" d="m246.70372,150.33814c-7.51408,-7.53618 -16.40113,-12.86274 -25.84163,-16.02238l-1.31975,3.9709c8.84448,2.94615 17.1568,7.96316 24.20258,15.01898c8.56776,8.60363 14.10221,19.09663 16.60335,30.14471l4.06569,-0.918c-2.66079,-11.79529 -8.55711,-23.01417 -17.71024,-32.19421z" opacity="0.74257" id="path3230"/>
   <path stroke="null" fill="#fff" d="m138.84578,186.85551l-4.1402,-0.71519c-3.43775,20.47364 2.70337,42.24957 18.44462,58.02644c15.68804,15.74485 37.32562,21.91469 57.68601,18.52021l-0.68116,-4.13102c-19.07257,3.18099 -39.33718,-2.61525 -54.04605,-17.35669c-14.7408,-14.79482 -20.48811,-35.17239 -17.26323,-54.34375z" opacity="0.74257" id="path3232"/>
  </g>
 </g>
</svg>