<svg xmlns="http://www.w3.org/2000/svg" width="400" height="400" xmlns:v="https://vecta.io/nano"><g vector-effect="non-scaling-stroke"><path vector-effect="non-scaling-stroke" fill-opacity=".5" d="M203.5 199c3 0 5.7 2.4 5.7 5.5s-2.5 5.8-5.7 5.8c-3 0-5.5-2.5-5.5-5.8s2.5-5.6 5.6-5.6h-.1z"/><path vector-effect="non-scaling-stroke" d="M200.6 1A200 200 0 0 0 1 200.5 200 200 0 0 0 200.6 400C310.8 400 400 310.7 400 200.6A200 200 0 0 0 200.4 1.1l.1-.1zm0 193.8c3-.1 5.6 2.4 5.6 5.7s-2.4 5.5-5.6 5.5-5.6-2.4-5.6-5.5 2.5-5.6 5.6-5.6v-.1z"/><path vector-effect="non-scaling-stroke" fill="#333" d="M200.6 127.8a73 73 0 0 0-72.5 72.7 73 73 0 0 0 72.5 72.6 73 73 0 0 0 72.6-72.6 73 73 0 0 0-72.6-72.7zm0 67.7c2.5 0 5 2.2 5 5s-2.3 4.7-5 4.7-4.8-2-4.8-4.7 2.2-5 4.8-5z"/><path vector-effect="non-scaling-stroke" d="M200.6 1A200 200 0 0 0 1 200.5 200 200 0 0 0 200.6 400C310.8 400 400 310.7 400 200.6A200 200 0 0 0 200.4 1.1l.1-.1zm0 4A196 196 0 0 1 396 200.4 196 196 0 0 1 200.6 396 196 196 0 0 1 5 200.4 196 196 0 0 1 200.6 4.9z"/><radialGradient id="A" cx="77.7" cy="196.5" r="92.5" gradientTransform="matrix(0.9531 -0.9843 -2.1395 -2.2223 750.4557 908.8184)" gradientUnits="userSpaceOnUse"><stop offset="0" stop-color="#fff"/><stop offset="1" stop-color="#fff" stop-opacity="0"/></radialGradient><path vector-effect="non-scaling-stroke" fill="url(#A)" d="M301.4 200.5a101 101 0 0 1-100.9 100.9V396A196 196 0 0 0 396 200.5h-94.7.1z"/><radialGradient id="B" cx="-57.9" cy="345.1" r="92.5" gradientTransform="matrix(-0.9531 0.9843 2.1395 2.2223 -787.9597 -726.0996)" gradientUnits="userSpaceOnUse"><stop offset="0" stop-color="#fff"/><stop offset="1" stop-color="#fff" stop-opacity="0"/></radialGradient><path vector-effect="non-scaling-stroke" fill="url(#B)" d="M99.7 200.5A101 101 0 0 1 200.6 99.6V5A196 196 0 0 0 5 200.5h94.7 0z"/><radialGradient id="C" cx="187.3" cy="202.2" r="90.5" gradientTransform="matrix(1.014 0 0 1.0148 -0.0144 -1.0288)" gradientUnits="userSpaceOnUse"><stop offset="0" stop-color="#6c6c6c"/><stop offset="1" stop-color="#3e3e3e"/></radialGradient><path vector-effect="non-scaling-stroke" fill="url(#C)" d="M253.2 148a74 74 0 0 0-104.5-.4l-.4.4a74 74 0 0 0-.3 104.8l.3.3a74 74 0 0 0 104.5.4l.4-.4a74 74 0 0 0 .3-104.8l-.3-.3zm-2.3 2.3a71 71 0 0 1 0 100.4 71 71 0 0 1-100.2.1l-.1-.1a71 71 0 0 1 0-100.4 71 71 0 0 1 100.2-.1l.1.1h0z"/><radialGradient id="D" cx="188.3" cy="201.9" r="85.3" gradientTransform="matrix(1.014 0 0 1.0148 -0.0144 -1.0288)" gradientUnits="userSpaceOnUse"><stop offset="0" stop-color="#f7f7f7"/><stop offset="1" stop-color="#e1e1e1"/></radialGradient><path vector-effect="non-scaling-stroke" fill="url(#D)" d="M241.6 159.6a58 58 0 0 0-81.7-.1l-.1.1a58 58 0 0 0 0 81.8 58 58 0 0 0 81.7.1l.1-.1a58 58 0 0 0 0-81.8zm-37 37c2.2 2.2 2.2 5.8 0 8s-5.8 2.2-8 0-2.2-5.8 0-8c2.2-2.2 5.8-2.2 8 0z"/><path vector-effect="non-scaling-stroke" opacity=".7" fill="#fff" d="M248 153.2a67 67 0 0 0-26.2-16.1l-1.5 4a64 64 0 0 1 24.5 15.1c8.4 8.4 14.2 19 16.8 30.4l4-1c-2.8-12.3-9-23.6-18-32.5h.2zM138.5 190l-4-.7a67 67 0 0 0 77.2 77.2l-.7-4a63 63 0 0 1-54.8-17.6c-14.4-14.4-21-34.8-17.5-54.8h-.1z"/></g><ellipse vector-effect="non-scaling-stroke" fill="#b92626" cx="201.2" cy="200.3" rx="55.6" ry="56.3"/><ellipse vector-effect="non-scaling-stroke" fill="#020202" cx="198.6" cy="199.5" rx="7.4" ry="7.4"/></svg>